name Walk6.mot
datacolumns 19
datarows 10
range 1.28000000 1.28900000
endheader

                time	   L_ground_force_vx	   L_ground_force_vy	   L_ground_force_vz	   L_ground_force_px	   L_ground_force_py	   L_ground_force_pz	   R_ground_force_vx	   R_ground_force_vy	   R_ground_force_vz	   R_ground_force_px	   R_ground_force_py	   R_ground_force_pz	   L_ground_torque_x	   L_ground_torque_y	   L_ground_torque_z	   R_ground_torque_x	   R_ground_torque_y	   R_ground_torque_z	
          1.28000000	          0.00000000	          0.00000000	          0.00000000	          0.00000000	          0.00000000	          0.00000000	          0.00000000	          0.00000000	          0.00000000	          0.00000000	          0.00000000	          0.00000000	          0.00000000	          0.00000000	          0.00000000	          0.00000000	          0.00000000	          0.00000000	
          1.28100000	          0.00000000	          0.00000000	          0.00000000	          0.00000000	          0.00000000	          0.00000000	          0.00000000	          0.00000000	          0.00000000	          0.00000000	          0.00000000	          0.00000000	          0.00000000	          0.00000000	          0.00000000	          0.00000000	          0.00000000	          0.00000000	
          1.28200000	          0.00000000	          0.00000000	          0.00000000	          0.00000000	          0.00000000	          0.00000000	          3.02115177	          8.40803789	          0.50696814	         -0.52975678	          0.00000000	         -0.06058650	          0.00000000	          0.00000000	          0.00000000	          0.00000000	         -0.02443447	          0.00000000	
          1.28300000	          0.00000000	          0.00000000	          0.00000000	          0.00000000	          0.00000000	          0.00000000	          5.06491167	         14.89629847	          0.82326376	         -0.52658243	          0.00000000	         -0.05844385	          0.00000000	          0.00000000	          0.00000000	          0.00000000	         -0.04014516	          0.00000000	
          1.28400000	          0.00000000	          0.00000000	          0.00000000	          0.00000000	          0.00000000	          0.00000000	          7.36376867	         23.03439656	          1.16961125	         -0.52355321	          0.00000000	         -0.05613816	          0.00000000	          0.00000000	          0.00000000	          0.00000000	         -0.05944186	          0.00000000	
          1.28500000	          0.00000000	          0.00000000	          0.00000000	          0.00000000	          0.00000000	          0.00000000	          9.79749798	         33.00459323	          1.56263249	         -0.52053718	          0.00000000	         -0.05403652	          0.00000000	          0.00000000	          0.00000000	          0.00000000	         -0.07993935	          0.00000000	
          1.28600000	          0.00000000	          0.00000000	          0.00000000	          0.00000000	          0.00000000	          0.00000000	         12.34868311	         45.24696155	          2.04396523	         -0.51775156	          0.00000000	         -0.05259388	          0.00000000	          0.00000000	          0.00000000	          0.00000000	         -0.09403909	          0.00000000	
          1.28700000	          0.00000000	          0.00000000	          0.00000000	          0.00000000	          0.00000000	          0.00000000	         15.09434056	         60.25918418	          2.65750625	         -0.51553102	          0.00000000	         -0.05198669	          0.00000000	          0.00000000	          0.00000000	          0.00000000	         -0.09601727	          0.00000000	
          1.28800000	          0.00000000	          0.00000000	          0.00000000	          0.00000000	          0.00000000	          0.00000000	         18.13499413	         78.27157247	          3.43375898	         -0.51406614	          0.00000000	         -0.05191902	          0.00000000	          0.00000000	          0.00000000	          0.00000000	         -0.09201830	          0.00000000	
          1.28900000	          0.00000000	          0.00000000	          0.00000000	          0.00000000	          0.00000000	          0.00000000	         21.51412612	         98.95215548	          4.37357403	         -0.51333068	          0.00000000	         -0.05192195	          0.00000000	          0.00000000	          0.00000000	          0.00000000	         -0.09662462	          0.00000000	
